
Complete name                    : Open.Water.2.Adrift.2006.avi
Format                           : AVI
File size                        : 1.37 GiB
Duration                         : 1h 30mn
Overall bit rate                 : 2 160 Kbps

Video

Format                           : MPEG-4 Visual
Codec ID/Hint                    : XviD
Duration                         : 1h 30mn
Bit rate                         : 1 701 Kbps
Width                            : 716 pixels
Height                           : 436 pixels
Display aspect ratio             : 2.35:1
Stream size                      : 1.08 GiB (79%)
Writing library                  : XviD 1.1.2 (UTC 2006-11-01)

Audio

Format                           : AC-3
Duration                         : 1h 30mn
Bit rate                         : 448 Kbps
Channel(s)                       : 6 channels
Channel positions                : Front: L C R, Side: L R, LFE
Sampling rate                    : 48.0 KHz
Bit depth                        : 16 bits
Stream size                      : 291 MiB (21%)


Text #1
Language                         : Danish

Text #2
Language                         : Swedish

Text #3
Language                         : Norwegian

Text #4
Language                         : Finnish